<svg xmlns="http://www.w3.org/2000/svg" viewBox="0 0 512 512" fill="none" width="512" height="512">
  <defs>

    <linearGradient id="icon-route" x1="22" y1="76" x2="480" y2="205" gradientUnits="userSpaceOnUse">
      <stop offset="0" stop-color="#1478F2"/>
      <stop offset="0.46" stop-color="#19BCE4"/>
      <stop offset="1" stop-color="#38CE62"/>
    </linearGradient>
    <filter id="icon-shadow" x="-8%" y="-16%" width="116%" height="132%" color-interpolation-filters="sRGB">
      <feDropShadow dx="0" dy="8" stdDeviation="8" flood-color="#06133F" flood-opacity="0.14"/>
    </filter>
    <radialGradient id="icon-glow-a" cx="0" cy="0" r="1" gradientUnits="userSpaceOnUse" gradientTransform="translate(132 118) rotate(45) scale(260)">
      <stop stop-color="#1EA1FF" stop-opacity="0.42"/>
      <stop offset="1" stop-color="#1EA1FF" stop-opacity="0"/>
    </radialGradient>
    <radialGradient id="icon-glow-b" cx="0" cy="0" r="1" gradientUnits="userSpaceOnUse" gradientTransform="translate(382 386) rotate(45) scale(260)">
      <stop stop-color="#38CE62" stop-opacity="0.34"/>
      <stop offset="1" stop-color="#38CE62" stop-opacity="0"/>
    </radialGradient>
  </defs>
  <rect width="512" height="512" rx="112" fill="#040C18"/>
  <rect width="512" height="512" rx="112" fill="url(#icon-glow-a)"/>
  <rect width="512" height="512" rx="112" fill="url(#icon-glow-b)"/>
  <g transform="translate(91 178.2) scale(0.66)">

    <g filter="url(#icon-shadow)">
      <path d="M44 76C78 136 91 232 149 232C191 232 202 164 225 111C239 80 263 80 277 111C300 164 311 232 353 232C411 232 424 136 458 76" fill="none" stroke="url(#icon-route)" stroke-width="31" stroke-linecap="round" stroke-linejoin="round"/>
    </g>
  </g>
</svg>
